<svg width="308" height="308" viewBox="0 0 308 308" fill="none" xmlns="http://www.w3.org/2000/svg">
<rect x="2" y="2" width="304" height="304" rx="17" fill="#00040D" stroke="#00040D" stroke-width="4"/>
<g filter="url(#filter0_d_0_3)">
<mask id="path-2-outside-1_0_3" maskUnits="userSpaceOnUse" x="66" y="56" width="174" height="195" fill="black">
<rect fill="white" x="66" y="56" width="174" height="195"/>
<path d="M67.6562 129L84.8402 58.92H103.08L120.456 129H105.768L102.408 113.16H85.7042L82.3442 129H67.6562ZM88.1042 101.64H99.9123L96.5522 84.744C96.1042 82.312 95.6242 79.912 95.1123 77.544C94.6643 75.112 94.3123 73.224 94.0562 71.88C93.8002 73.224 93.4482 75.08 93.0002 77.448C92.6163 79.816 92.1683 82.216 91.6562 84.648L88.1042 101.64ZM154.019 129.96C149.347 129.96 145.283 129.096 141.827 127.368C138.371 125.576 135.683 123.112 133.763 119.976C131.907 116.776 130.979 113.064 130.979 108.84V96.36C130.979 92.136 131.907 88.456 133.763 85.32C135.683 82.12 138.371 79.656 141.827 77.928C145.283 76.136 149.347 75.24 154.019 75.24C158.755 75.24 162.819 76.136 166.211 77.928C169.667 79.656 172.323 82.12 174.179 85.32C176.099 88.456 177.059 92.136 177.059 96.36V108.84C177.059 113.064 176.099 116.776 174.179 119.976C172.323 123.112 169.667 125.576 166.211 127.368C162.819 129.096 158.755 129.96 154.019 129.96ZM154.019 117.48C156.835 117.48 158.979 116.744 160.451 115.272C161.923 113.736 162.659 111.592 162.659 108.84V96.36C162.659 93.544 161.923 91.4 160.451 89.928C158.979 88.456 156.835 87.72 154.019 87.72C151.267 87.72 149.123 88.456 147.587 89.928C146.115 91.4 145.379 93.544 145.379 96.36V108.84C145.379 111.592 146.115 113.736 147.587 115.272C149.123 116.744 151.267 117.48 154.019 117.48ZM214.749 129.96C210.077 129.96 205.981 129.096 202.461 127.368C198.941 125.576 196.189 123.112 194.205 119.976C192.285 116.776 191.325 113.064 191.325 108.84V79.08C191.325 74.792 192.285 71.08 194.205 67.944C196.189 64.808 198.941 62.376 202.461 60.648C205.981 58.856 210.077 57.96 214.749 57.96C219.485 57.96 223.581 58.856 227.037 60.648C230.557 62.376 233.277 64.808 235.197 67.944C237.181 71.08 238.173 74.792 238.173 79.08H223.773C223.773 76.264 222.973 74.12 221.373 72.648C219.837 71.176 217.629 70.44 214.749 70.44C211.869 70.44 209.629 71.176 208.029 72.648C206.493 74.12 205.725 76.264 205.725 79.08V108.84C205.725 111.592 206.493 113.736 208.029 115.272C209.629 116.744 211.869 117.48 214.749 117.48C217.629 117.48 219.837 116.744 221.373 115.272C222.973 113.736 223.773 111.592 223.773 108.84H238.173C238.173 113.064 237.181 116.776 235.197 119.976C233.277 123.112 230.557 125.576 227.037 127.368C223.581 129.096 219.485 129.96 214.749 129.96ZM101.478 249V236.136L128.07 209.736C130.758 207.048 132.102 203.816 132.102 200.04C132.102 197.416 131.302 195.24 129.702 193.512C128.166 191.784 126.118 190.92 123.558 190.92C120.934 190.92 118.79 191.816 117.126 193.608C115.526 195.4 114.726 197.704 114.726 200.52H100.326C100.326 196.04 101.318 192.136 103.302 188.808C105.35 185.416 108.134 182.76 111.654 180.84C115.238 178.92 119.366 177.96 124.038 177.96C128.582 177.96 132.55 178.856 135.942 180.648C139.334 182.376 141.99 184.84 143.91 188.04C145.83 191.176 146.79 194.824 146.79 198.984C146.79 202.696 145.99 206.312 144.39 209.832C142.79 213.288 140.198 216.712 136.614 220.104L119.91 236.04H147.558V249H101.478ZM183.616 249.96C176.448 249.96 170.752 248.168 166.528 244.584C162.304 240.936 160.192 236.008 160.192 229.8H174.592C174.592 232.168 175.392 234.056 176.992 235.464C178.656 236.808 180.864 237.48 183.616 237.48C186.432 237.48 188.64 236.808 190.24 235.464C191.84 234.056 192.64 232.168 192.64 229.8V224.232C192.64 221.608 191.84 219.592 190.24 218.184C188.704 216.712 186.496 215.976 183.616 215.976H174.016V204.84L189.376 191.4H163.072V178.92H204.928V190.536L189.472 204.36C194.976 205.32 199.264 207.528 202.336 210.984C205.472 214.44 207.04 218.824 207.04 224.136V229.8C207.04 236.008 204.928 240.936 200.704 244.584C196.544 248.168 190.848 249.96 183.616 249.96Z"/>
</mask>
<path d="M67.6562 129L84.8402 58.92H103.08L120.456 129H105.768L102.408 113.16H85.7042L82.3442 129H67.6562ZM88.1042 101.64H99.9123L96.5522 84.744C96.1042 82.312 95.6242 79.912 95.1123 77.544C94.6643 75.112 94.3123 73.224 94.0562 71.88C93.8002 73.224 93.4482 75.08 93.0002 77.448C92.6163 79.816 92.1683 82.216 91.6562 84.648L88.1042 101.64ZM154.019 129.96C149.347 129.96 145.283 129.096 141.827 127.368C138.371 125.576 135.683 123.112 133.763 119.976C131.907 116.776 130.979 113.064 130.979 108.84V96.36C130.979 92.136 131.907 88.456 133.763 85.32C135.683 82.12 138.371 79.656 141.827 77.928C145.283 76.136 149.347 75.24 154.019 75.24C158.755 75.24 162.819 76.136 166.211 77.928C169.667 79.656 172.323 82.12 174.179 85.32C176.099 88.456 177.059 92.136 177.059 96.36V108.84C177.059 113.064 176.099 116.776 174.179 119.976C172.323 123.112 169.667 125.576 166.211 127.368C162.819 129.096 158.755 129.96 154.019 129.96ZM154.019 117.48C156.835 117.48 158.979 116.744 160.451 115.272C161.923 113.736 162.659 111.592 162.659 108.84V96.36C162.659 93.544 161.923 91.4 160.451 89.928C158.979 88.456 156.835 87.72 154.019 87.72C151.267 87.72 149.123 88.456 147.587 89.928C146.115 91.4 145.379 93.544 145.379 96.36V108.84C145.379 111.592 146.115 113.736 147.587 115.272C149.123 116.744 151.267 117.48 154.019 117.48ZM214.749 129.96C210.077 129.96 205.981 129.096 202.461 127.368C198.941 125.576 196.189 123.112 194.205 119.976C192.285 116.776 191.325 113.064 191.325 108.84V79.08C191.325 74.792 192.285 71.08 194.205 67.944C196.189 64.808 198.941 62.376 202.461 60.648C205.981 58.856 210.077 57.96 214.749 57.96C219.485 57.96 223.581 58.856 227.037 60.648C230.557 62.376 233.277 64.808 235.197 67.944C237.181 71.08 238.173 74.792 238.173 79.08H223.773C223.773 76.264 222.973 74.12 221.373 72.648C219.837 71.176 217.629 70.44 214.749 70.44C211.869 70.44 209.629 71.176 208.029 72.648C206.493 74.12 205.725 76.264 205.725 79.08V108.84C205.725 111.592 206.493 113.736 208.029 115.272C209.629 116.744 211.869 117.48 214.749 117.48C217.629 117.48 219.837 116.744 221.373 115.272C222.973 113.736 223.773 111.592 223.773 108.84H238.173C238.173 113.064 237.181 116.776 235.197 119.976C233.277 123.112 230.557 125.576 227.037 127.368C223.581 129.096 219.485 129.96 214.749 129.96ZM101.478 249V236.136L128.07 209.736C130.758 207.048 132.102 203.816 132.102 200.04C132.102 197.416 131.302 195.24 129.702 193.512C128.166 191.784 126.118 190.92 123.558 190.92C120.934 190.92 118.79 191.816 117.126 193.608C115.526 195.4 114.726 197.704 114.726 200.52H100.326C100.326 196.04 101.318 192.136 103.302 188.808C105.35 185.416 108.134 182.76 111.654 180.84C115.238 178.92 119.366 177.96 124.038 177.96C128.582 177.96 132.55 178.856 135.942 180.648C139.334 182.376 141.99 184.84 143.91 188.04C145.83 191.176 146.79 194.824 146.79 198.984C146.79 202.696 145.99 206.312 144.39 209.832C142.79 213.288 140.198 216.712 136.614 220.104L119.91 236.04H147.558V249H101.478ZM183.616 249.96C176.448 249.96 170.752 248.168 166.528 244.584C162.304 240.936 160.192 236.008 160.192 229.8H174.592C174.592 232.168 175.392 234.056 176.992 235.464C178.656 236.808 180.864 237.48 183.616 237.48C186.432 237.48 188.64 236.808 190.24 235.464C191.84 234.056 192.64 232.168 192.64 229.8V224.232C192.64 221.608 191.84 219.592 190.24 218.184C188.704 216.712 186.496 215.976 183.616 215.976H174.016V204.84L189.376 191.4H163.072V178.92H204.928V190.536L189.472 204.36C194.976 205.32 199.264 207.528 202.336 210.984C205.472 214.44 207.04 218.824 207.04 224.136V229.8C207.04 236.008 204.928 240.936 200.704 244.584C196.544 248.168 190.848 249.96 183.616 249.96Z" fill="#74CDDD"/>
<path d="M67.6562 129L66.685 128.762L66.3814 130H67.6562V129ZM84.8402 58.92V57.92H84.0558L83.869 58.6818L84.8402 58.92ZM103.08 58.92L104.051 58.6793L103.863 57.92H103.08V58.92ZM120.456 129V130H121.734L121.427 128.759L120.456 129ZM105.768 129L104.79 129.208L104.958 130H105.768V129ZM102.408 113.16L103.386 112.952L103.218 112.16H102.408V113.16ZM85.7042 113.16V112.16H84.8941L84.726 112.952L85.7042 113.16ZM82.3442 129V130H83.1544L83.3225 129.208L82.3442 129ZM88.1042 101.64L87.1254 101.435L86.8736 102.64H88.1042V101.64ZM99.9123 101.64V102.64H101.131L100.893 101.445L99.9123 101.64ZM96.5522 84.744L95.5687 84.9252L95.5715 84.939L96.5522 84.744ZM95.1123 77.544L94.1288 77.7252L94.1316 77.7403L94.1348 77.7553L95.1123 77.544ZM94.0563 71.88L95.0386 71.6929H93.0739L94.0563 71.88ZM93.0003 77.448L92.0177 77.2621L92.0152 77.275L92.0131 77.2879L93.0003 77.448ZM91.6562 84.648L90.6777 84.442L90.6774 84.4434L91.6562 84.648ZM68.6275 129.238L85.8115 59.1581L83.869 58.6818L66.685 128.762L68.6275 129.238ZM84.8402 59.92H103.08V57.92H84.8402V59.92ZM102.11 59.1607L119.486 129.241L121.427 128.759L104.051 58.6793L102.11 59.1607ZM120.456 128H105.768V130H120.456V128ZM106.746 128.792L103.386 112.952L101.43 113.368L104.79 129.208L106.746 128.792ZM102.408 112.16H85.7042V114.16H102.408V112.16ZM84.726 112.952L81.366 128.792L83.3225 129.208L86.6825 113.368L84.726 112.952ZM82.3442 128H67.6562V130H82.3442V128ZM88.1042 102.64H99.9123V100.64H88.1042V102.64ZM100.893 101.445L97.533 84.549L95.5715 84.939L98.9315 101.835L100.893 101.445ZM97.5357 84.5628C97.0859 82.121 96.6039 79.7109 96.0897 77.3327L94.1348 77.7553C94.6446 80.1131 95.1226 82.503 95.5688 84.9252L97.5357 84.5628ZM96.0957 77.3628C95.6476 74.9302 95.2952 73.0398 95.0386 71.6929L93.0739 72.0671C93.3293 73.4081 93.6809 75.2938 94.1288 77.7252L96.0957 77.3628ZM93.0739 71.6929C92.8178 73.0375 92.4657 74.894 92.0177 77.2621L93.9828 77.6339C94.4308 75.266 94.7827 73.4105 95.0386 72.0671L93.0739 71.6929ZM92.0131 77.2879C91.6317 79.64 91.1866 82.0247 90.6777 84.442L92.6348 84.854C93.1499 82.4073 93.6008 79.992 93.9874 77.6081L92.0131 77.2879ZM90.6774 84.4434L87.1254 101.435L89.0831 101.845L92.6351 84.8526L90.6774 84.4434ZM141.827 127.368L141.366 128.256L141.373 128.259L141.38 128.262L141.827 127.368ZM133.763 119.976L132.898 120.478L132.904 120.488L132.91 120.498L133.763 119.976ZM133.763 85.32L132.905 84.8055L132.902 84.8107L133.763 85.32ZM141.827 77.928L142.274 78.8224L142.281 78.8191L142.287 78.8158L141.827 77.928ZM166.211 77.928L165.744 78.8122L165.754 78.8174L165.764 78.8224L166.211 77.928ZM174.179 85.32L173.314 85.8217L173.32 85.832L173.326 85.8422L174.179 85.32ZM174.179 119.976L173.321 119.461L173.318 119.467L174.179 119.976ZM166.211 127.368L166.665 128.259L166.671 128.256L166.211 127.368ZM160.451 115.272L161.158 115.979L161.165 115.972L161.173 115.964L160.451 115.272ZM147.587 89.928L146.895 89.206L146.887 89.2134L146.88 89.2209L147.587 89.928ZM147.587 115.272L146.865 115.964L146.879 115.979L146.895 115.994L147.587 115.272ZM154.019 128.96C149.47 128.96 145.565 128.119 142.274 126.474L141.38 128.262C145 130.073 149.224 130.96 154.019 130.96V128.96ZM142.287 126.48C138.983 124.767 136.435 122.425 134.616 119.454L132.91 120.498C134.931 123.799 137.759 126.385 141.366 128.256L142.287 126.48ZM134.628 119.474C132.872 116.447 131.979 112.913 131.979 108.84H129.979C129.979 113.215 130.941 117.105 132.898 120.478L134.628 119.474ZM131.979 108.84V96.36H129.979V108.84H131.979ZM131.979 96.36C131.979 92.2863 132.872 88.788 134.623 85.8293L132.902 84.8107C130.941 88.124 129.979 91.9857 129.979 96.36H131.979ZM134.62 85.8345C136.439 82.8036 138.982 80.4685 142.274 78.8224L141.38 77.0336C137.76 78.8435 134.927 81.4364 132.905 84.8055L134.62 85.8345ZM142.287 78.8158C145.575 77.1109 149.475 76.24 154.019 76.24V74.24C149.218 74.24 144.99 75.1611 141.366 77.0402L142.287 78.8158ZM154.019 76.24C158.63 76.24 162.526 77.1121 165.744 78.8122L166.678 77.0438C163.112 75.1599 158.88 74.24 154.019 74.24V76.24ZM165.764 78.8224C169.053 80.4672 171.56 82.7984 173.314 85.8217L175.044 84.8183C173.085 81.4416 170.28 78.8448 166.658 77.0336L165.764 78.8224ZM173.326 85.8422C175.136 88.7987 176.059 92.2923 176.059 96.36H178.059C178.059 91.9797 177.061 88.1133 175.032 84.7978L173.326 85.8422ZM176.059 96.36V108.84H178.059V96.36H176.059ZM176.059 108.84C176.059 112.907 175.136 116.437 173.321 119.462L175.036 120.49C177.061 117.115 178.059 113.221 178.059 108.84H176.059ZM173.318 119.467C171.564 122.43 169.052 124.768 165.75 126.48L166.671 128.256C170.281 126.384 173.081 123.794 175.039 120.485L173.318 119.467ZM165.757 126.477C162.536 128.118 158.635 128.96 154.019 128.96V130.96C158.875 130.96 163.102 130.074 166.665 128.259L165.757 126.477ZM154.019 118.48C157.004 118.48 159.44 117.697 161.158 115.979L159.744 114.565C158.518 115.791 156.666 116.48 154.019 116.48V118.48ZM161.173 115.964C162.871 114.192 163.659 111.771 163.659 108.84H161.659C161.659 111.413 160.975 113.28 159.729 114.58L161.173 115.964ZM163.659 108.84V96.36H161.659V108.84H163.659ZM163.659 96.36C163.659 93.3749 162.876 90.9389 161.158 89.2209L159.744 90.6351C160.97 91.8611 161.659 93.7131 161.659 96.36H163.659ZM161.158 89.2209C159.44 87.5028 157.004 86.72 154.019 86.72V88.72C156.666 88.72 158.518 89.4092 159.744 90.6351L161.158 89.2209ZM154.019 86.72C151.087 86.72 148.667 87.5078 146.895 89.206L148.279 90.65C149.579 89.4042 151.446 88.72 154.019 88.72V86.72ZM146.88 89.2209C145.162 90.9389 144.379 93.3749 144.379 96.36H146.379C146.379 93.7131 147.068 91.8611 148.294 90.6351L146.88 89.2209ZM144.379 96.36V108.84H146.379V96.36H144.379ZM144.379 108.84C144.379 111.771 145.167 114.192 146.865 115.964L148.309 114.58C147.063 113.28 146.379 111.413 146.379 108.84H144.379ZM146.895 115.994C148.667 117.692 151.087 118.48 154.019 118.48V116.48C151.446 116.48 149.579 115.796 148.279 114.55L146.895 115.994ZM202.461 127.368L202.008 128.259L202.014 128.262L202.021 128.266L202.461 127.368ZM194.205 119.976L193.348 120.49L193.354 120.501L193.36 120.511L194.205 119.976ZM194.205 67.944L193.36 67.4094L193.356 67.4156L193.352 67.4218L194.205 67.944ZM202.461 60.648L202.902 61.5457L202.908 61.5425L202.915 61.5392L202.461 60.648ZM227.037 60.648L226.577 61.5358L226.587 61.5408L226.597 61.5457L227.037 60.648ZM235.197 67.944L234.344 68.4661L234.348 68.4724L234.352 68.4786L235.197 67.944ZM238.173 79.08V80.08H239.173V79.08H238.173ZM223.773 79.08H222.773V80.08H223.773V79.08ZM221.373 72.648L220.681 73.37L220.689 73.377L220.696 73.3839L221.373 72.648ZM208.029 72.648L207.352 71.9121L207.345 71.919L207.337 71.926L208.029 72.648ZM208.029 115.272L207.322 115.979L207.337 115.994L207.352 116.008L208.029 115.272ZM221.373 115.272L222.065 115.994L222.066 115.993L221.373 115.272ZM223.773 108.84V107.84H222.773V108.84H223.773ZM238.173 108.84H239.173V107.84H238.173V108.84ZM235.197 119.976L234.347 119.449L234.344 119.454L235.197 119.976ZM227.037 127.368L227.484 128.262L227.491 128.259L227.037 127.368ZM214.749 128.96C210.201 128.96 206.261 128.119 202.902 126.47L202.021 128.266C205.702 130.073 209.953 130.96 214.749 130.96V128.96ZM202.915 126.477C199.544 124.761 196.932 122.416 195.05 119.441L193.36 120.511C195.446 123.808 198.338 126.391 202.008 128.259L202.915 126.477ZM195.063 119.462C193.248 116.437 192.325 112.907 192.325 108.84H190.325C190.325 113.221 191.323 117.115 193.348 120.49L195.063 119.462ZM192.325 108.84V79.08H190.325V108.84H192.325ZM192.325 79.08C192.325 74.9452 193.249 71.4204 195.058 68.4661L193.352 67.4218C191.321 70.7396 190.325 74.6388 190.325 79.08H192.325ZM195.05 68.4786C196.93 65.5076 199.538 63.1971 202.902 61.5457L202.021 59.7503C198.345 61.5549 195.449 64.1083 193.36 67.4094L195.05 68.4786ZM202.915 61.5392C206.271 59.8307 210.206 58.96 214.749 58.96V56.96C209.948 56.96 205.692 57.8813 202.008 59.7568L202.915 61.5392ZM214.749 58.96C219.359 58.96 223.291 59.8318 226.577 61.5358L227.498 59.7602C223.872 57.8802 219.611 56.96 214.749 56.96V58.96ZM226.597 61.5457C229.958 63.1959 232.53 65.5027 234.344 68.4661L236.05 67.4218C234.024 64.1133 231.156 61.5561 227.478 59.7503L226.597 61.5457ZM234.352 68.4786C236.22 71.431 237.173 74.9512 237.173 79.08H239.173C239.173 74.6328 238.142 70.729 236.042 67.4094L234.352 68.4786ZM238.173 78.08H223.773V80.08H238.173V78.08ZM224.773 79.08C224.773 76.0717 223.913 73.6254 222.05 71.9121L220.696 73.3839C222.034 74.6146 222.773 76.4563 222.773 79.08H224.773ZM222.065 71.926C220.285 70.2202 217.794 69.44 214.749 69.44V71.44C217.465 71.44 219.389 72.1318 220.681 73.37L222.065 71.926ZM214.749 69.44C211.702 69.44 209.19 70.2212 207.352 71.9121L208.706 73.3839C210.068 72.1308 212.037 71.44 214.749 71.44V69.44ZM207.337 71.926C205.547 73.642 204.725 76.0834 204.725 79.08H206.725C206.725 76.4446 207.44 74.598 208.721 73.37L207.337 71.926ZM204.725 79.08V108.84H206.725V79.08H204.725ZM204.725 108.84C204.725 111.783 205.552 114.209 207.322 115.979L208.736 114.565C207.435 113.263 206.725 111.401 206.725 108.84H204.725ZM207.352 116.008C209.19 117.699 211.702 118.48 214.749 118.48V116.48C212.037 116.48 210.068 115.789 208.706 114.536L207.352 116.008ZM214.749 118.48C217.794 118.48 220.285 117.7 222.065 115.994L220.681 114.55C219.389 115.788 217.465 116.48 214.749 116.48V118.48ZM222.066 115.993C223.907 114.225 224.773 111.794 224.773 108.84H222.773C222.773 111.39 222.039 113.247 220.681 114.551L222.066 115.993ZM223.773 109.84H238.173V107.84H223.773V109.84ZM237.173 108.84C237.173 112.901 236.222 116.426 234.347 119.449L236.047 120.503C238.141 117.126 239.173 113.227 239.173 108.84H237.173ZM234.344 119.454C232.528 122.421 229.952 124.762 226.584 126.477L227.491 128.259C231.163 126.39 234.026 123.803 236.05 120.498L234.344 119.454ZM226.59 126.474C223.301 128.118 219.364 128.96 214.749 128.96V130.96C219.606 130.96 223.862 130.074 227.484 128.262L226.59 126.474ZM101.478 249H100.478V250H101.478V249ZM101.478 236.136L100.773 235.426L100.478 235.72V236.136H101.478ZM128.07 209.736L128.774 210.446L128.777 210.443L128.07 209.736ZM129.702 193.512L128.954 194.176L128.961 194.184L128.968 194.191L129.702 193.512ZM117.126 193.608L116.393 192.928L116.386 192.935L116.38 192.942L117.126 193.608ZM114.726 200.52V201.52H115.726V200.52H114.726ZM100.326 200.52H99.3255V201.52H100.326V200.52ZM103.302 188.808L102.445 188.291L102.443 188.296L103.302 188.808ZM111.654 180.84L111.181 179.958L111.175 179.962L111.654 180.84ZM135.941 180.648L135.474 181.532L135.481 181.536L135.488 181.539L135.941 180.648ZM143.91 188.04L143.052 188.555L143.057 188.562L143.91 188.04ZM144.39 209.832L145.297 210.252L145.3 210.246L144.39 209.832ZM136.614 220.104L135.926 219.378L135.923 219.38L136.614 220.104ZM119.91 236.04L119.219 235.316L117.413 237.04H119.91V236.04ZM147.558 236.04H148.558V235.04H147.558V236.04ZM147.558 249V250H148.558V249H147.558ZM102.478 249V236.136H100.478V249H102.478ZM102.182 236.846L128.774 210.446L127.365 209.026L100.773 235.426L102.182 236.846ZM128.777 210.443C131.651 207.569 133.102 204.083 133.102 200.04H131.102C131.102 203.549 129.864 206.527 127.362 209.029L128.777 210.443ZM133.102 200.04C133.102 197.195 132.226 194.767 130.435 192.833L128.968 194.191C130.377 195.713 131.102 197.637 131.102 200.04H133.102ZM130.449 192.848C128.702 190.882 126.369 189.92 123.558 189.92V191.92C125.866 191.92 127.629 192.686 128.954 194.176L130.449 192.848ZM123.558 189.92C120.678 189.92 118.261 190.916 116.393 192.928L117.858 194.288C119.318 192.716 121.189 191.92 123.558 191.92V189.92ZM116.38 192.942C114.588 194.948 113.726 197.503 113.726 200.52H115.726C115.726 197.905 116.463 195.852 117.871 194.274L116.38 192.942ZM114.726 199.52H100.326V201.52H114.726V199.52ZM101.326 200.52C101.326 196.192 102.282 192.47 104.16 189.32L102.443 188.296C100.353 191.802 99.3255 195.888 99.3255 200.52H101.326ZM104.158 189.325C106.113 186.086 108.766 183.554 112.132 181.718L111.175 179.962C107.501 181.966 104.586 184.746 102.445 188.291L104.158 189.325ZM112.126 181.721C115.544 179.89 119.506 178.96 124.038 178.96V176.96C119.225 176.96 114.931 177.95 111.181 179.959L112.126 181.721ZM124.038 178.96C128.449 178.96 132.251 179.829 135.474 181.532L136.409 179.764C132.848 177.883 128.714 176.96 124.038 176.96V178.96ZM135.488 181.539C138.716 183.184 141.231 185.519 143.052 188.554L144.767 187.525C142.748 184.161 139.951 181.568 136.395 179.757L135.488 181.539ZM143.057 188.562C144.868 191.521 145.79 194.983 145.79 198.984H147.79C147.79 194.665 146.791 190.831 144.762 187.518L143.057 188.562ZM145.79 198.984C145.79 202.547 145.023 206.023 143.479 209.418L145.3 210.246C146.956 206.601 147.79 202.845 147.79 198.984H145.79ZM143.482 209.412C141.949 212.724 139.444 216.048 135.926 219.378L137.301 220.83C140.951 217.376 143.63 213.852 145.297 210.252L143.482 209.412ZM135.923 219.38L119.219 235.316L120.6 236.764L137.304 220.828L135.923 219.38ZM119.91 237.04H147.558V235.04H119.91V237.04ZM146.558 236.04V249H148.558V236.04H146.558ZM147.558 248H101.478V250H147.558V248ZM166.528 244.584L165.874 245.341L165.881 245.347L166.528 244.584ZM160.192 229.8V228.8H159.192V229.8H160.192ZM174.592 229.8H175.592V228.8H174.592V229.8ZM176.992 235.464L176.331 236.215L176.347 236.229L176.364 236.242L176.992 235.464ZM190.24 235.464L190.883 236.23L190.892 236.222L190.901 236.215L190.24 235.464ZM190.24 218.184L189.548 218.906L189.563 218.921L189.579 218.935L190.24 218.184ZM174.016 215.976H173.016V216.976H174.016V215.976ZM174.016 204.84L173.358 204.087L173.016 204.386V204.84H174.016ZM189.376 191.4L190.035 192.153L192.037 190.4H189.376V191.4ZM163.072 191.4H162.072V192.4H163.072V191.4ZM163.072 178.92V177.92H162.072V178.92H163.072ZM204.928 178.92H205.928V177.92H204.928V178.92ZM204.928 190.536L205.595 191.281L205.928 190.983V190.536H204.928ZM189.472 204.36L188.805 203.615L187.267 204.991L189.3 205.345L189.472 204.36ZM202.336 210.984L201.589 211.648L201.595 211.656L202.336 210.984ZM200.704 244.584L201.357 245.342L201.358 245.341L200.704 244.584ZM183.616 248.96C176.614 248.96 171.171 247.212 167.175 243.821L165.881 245.347C170.333 249.124 176.282 250.96 183.616 250.96V248.96ZM167.182 243.827C163.204 240.392 161.192 235.754 161.192 229.8H159.192C159.192 236.262 161.404 241.48 165.874 245.341L167.182 243.827ZM160.192 230.8H174.592V228.8H160.192V230.8ZM173.592 229.8C173.592 232.42 174.49 234.594 176.331 236.215L177.653 234.713C176.294 233.518 175.592 231.916 175.592 229.8H173.592ZM176.364 236.242C178.251 237.766 180.702 238.48 183.616 238.48V236.48C181.026 236.48 179.061 235.85 177.62 234.686L176.364 236.242ZM183.616 238.48C186.585 238.48 189.049 237.771 190.883 236.23L189.597 234.698C188.231 235.845 186.279 236.48 183.616 236.48V238.48ZM190.901 236.215C192.742 234.594 193.64 232.42 193.64 229.8H191.64C191.64 231.916 190.938 233.518 189.579 234.713L190.901 236.215ZM193.64 229.8V224.232H191.64V229.8H193.64ZM193.64 224.232C193.64 221.393 192.765 219.074 190.901 217.433L189.579 218.935C190.915 220.11 191.64 221.823 191.64 224.232H193.64ZM190.932 217.462C189.152 215.756 186.661 214.976 183.616 214.976V216.976C186.331 216.976 188.256 217.668 189.548 218.906L190.932 217.462ZM183.616 214.976H174.016V216.976H183.616V214.976ZM175.016 215.976V204.84H173.016V215.976H175.016ZM174.675 205.593L190.035 192.153L188.718 190.647L173.358 204.087L174.675 205.593ZM189.376 190.4H163.072V192.4H189.376V190.4ZM164.072 191.4V178.92H162.072V191.4H164.072ZM163.072 179.92H204.928V177.92H163.072V179.92ZM203.928 178.92V190.536H205.928V178.92H203.928ZM204.261 189.791L188.805 203.615L190.139 205.105L205.595 191.281L204.261 189.791ZM189.3 205.345C194.63 206.275 198.696 208.394 201.589 211.648L203.083 210.32C199.832 206.662 195.323 204.365 189.644 203.375L189.3 205.345ZM201.595 211.656C204.541 214.902 206.04 219.036 206.04 224.136H208.04C208.04 218.612 206.403 213.978 203.077 210.312L201.595 211.656ZM206.04 224.136V229.8H208.04V224.136H206.04ZM206.04 229.8C206.04 235.754 204.028 240.392 200.05 243.827L201.358 245.341C205.828 241.48 208.04 236.262 208.04 229.8H206.04ZM200.051 243.826C196.124 247.21 190.686 248.96 183.616 248.96V250.96C191.01 250.96 196.964 249.126 201.357 245.342L200.051 243.826Z" fill="#34A5BF" mask="url(#path-2-outside-1_0_3)"/>
</g>
<path d="M40.9521 295.015C40.9256 295.026 40.9012 295.042 40.8801 295.062C40.22 295.669 39.4896 295.816 39.0218 295.624C38.3808 295.361 37.6897 294.674 37.1034 293.495C36.5201 292.321 36.0534 290.685 35.8462 288.568C35.805 288.014 35.7633 287.49 35.724 286.995C35.585 285.25 35.475 283.868 35.5204 282.832C35.5494 282.168 35.6419 281.679 35.8116 281.339C35.9736 281.015 36.2068 280.824 36.5558 280.744C36.8366 280.679 37.1951 280.839 37.6304 281.337C38.0537 281.822 38.4871 282.56 38.9059 283.461C39.7416 285.259 40.4917 287.644 40.9802 289.778C41.1437 290.493 41.4042 291.123 41.6496 291.677C41.6942 291.777 41.7381 291.875 41.7806 291.97C41.9758 292.404 42.1434 292.777 42.2393 293.12C42.3535 293.528 42.3505 293.843 42.1927 294.122C42.0289 294.412 41.6705 294.712 40.9521 295.015Z" fill="#ECCDA6" stroke="black" stroke-width="0.5" stroke-linecap="round" stroke-linejoin="round"/>
<path d="M69.7981 284.227C69.7999 284.249 69.8047 284.271 69.8121 284.291C70.0288 284.888 69.6618 285.441 69.3131 285.834C68.9445 286.249 68.351 286.527 67.4274 286.583C66.5012 286.638 65.2649 286.468 63.648 286.005C61.7602 285.413 60.2577 284.916 59.2523 284.391C58.7497 284.129 58.3931 283.87 58.1754 283.606C57.9646 283.35 57.8858 283.094 57.9268 282.809C57.9688 282.517 58.1029 282.32 58.3266 282.181C58.5635 282.033 58.9152 281.94 59.3984 281.904C60.3658 281.834 61.7403 282 63.4644 282.247C63.8968 282.31 64.4038 282.357 64.9335 282.407C65.0899 282.421 65.2482 282.436 65.4072 282.452C66.1104 282.52 66.8332 282.601 67.4898 282.732C68.1498 282.863 68.7215 283.041 69.133 283.292C69.5383 283.539 69.7646 283.841 69.7981 284.227Z" fill="#ECCDA6" stroke="black" stroke-width="0.5" stroke-linecap="round" stroke-linejoin="round"/>
<path d="M76.399 246.117C75.7792 246.426 74.8073 246.495 73.5334 246.161C72.2657 245.829 70.7257 245.104 68.9948 243.868C68.5506 243.535 68.1284 243.222 67.7299 242.926C66.3234 241.883 65.2105 241.057 64.4595 240.341C63.9782 239.883 63.6706 239.491 63.5264 239.14C63.3888 238.805 63.398 238.504 63.5674 238.188C63.6364 238.059 63.7681 237.942 63.9842 237.847C64.201 237.752 64.488 237.686 64.84 237.653C65.5438 237.587 66.4624 237.657 67.4901 237.843C69.5436 238.213 71.9777 239.032 73.8925 240.06C76.3276 241.368 77.164 243.078 77.1972 244.347C77.2207 245.243 76.8513 245.89 76.399 246.117Z" fill="#ECCDA6" stroke="black" stroke-width="0.5" stroke-linecap="round" stroke-linejoin="round"/>
<path d="M25.3834 264.75L23.1533 264.75C22.7129 263.899 22.1601 263.114 21.603 262.382C21.369 262.075 21.1368 261.78 20.9114 261.494C20.5642 261.053 20.2331 260.633 19.9363 260.219C19.4496 259.539 19.0875 258.917 18.9379 258.326C18.7934 257.755 18.8459 257.21 19.1977 256.655C19.6312 256.201 20.0141 256.047 20.3611 256.058C20.7229 256.07 21.1074 256.263 21.5321 256.633C21.9547 257.002 22.3895 257.521 22.8506 258.134C23.1516 258.535 23.4578 258.966 23.7762 259.415C23.946 259.655 24.1193 259.899 24.2971 260.146C24.9504 261.054 25.4997 261.902 25.7351 262.694C25.9545 263.433 25.8981 264.11 25.3834 264.75Z" fill="#ECCDA6" stroke="black" stroke-width="0.5" stroke-linecap="round" stroke-linejoin="round"/>
<path d="M67.2525 194.035C67.5023 195.784 67.7461 198.011 67.6205 199.795C67.5576 200.69 67.4032 201.446 67.1292 201.97C66.8621 202.482 66.4977 202.75 65.9899 202.75C65.0822 202.75 63.8528 202.356 62.4992 201.683C61.153 201.013 59.7114 200.081 58.3877 199.036C57.0634 197.99 55.8646 196.837 54.9995 195.73C54.1263 194.612 53.6251 193.581 53.6251 192.771C53.6251 191.023 54.1453 189.33 55.1224 188.079C56.095 186.834 57.5242 186.021 59.3751 186.021C63.0878 186.021 66.5763 189.302 67.2525 194.035Z" fill="#78CBDF" stroke="black" stroke-width="0.5"/>
<path d="M66 194.5C66.3441 196.735 66.2206 199 64.5 199C61.8392 199 57.5 195.792 57.5 193.5C57.5 191.208 58.8392 189 61.5 189C64.1608 189 65.5255 191.419 66 194.5Z" fill="black"/>
<path d="M25.7201 251.119L25.726 251.108L25.7308 251.096C27.0097 248.027 26.8732 244.248 26.0735 240.171C25.3023 236.239 23.9058 231.991 22.5207 227.778C22.468 227.618 22.4152 227.457 22.3625 227.297C20.9238 222.918 19.524 218.593 18.8558 214.677C18.1869 210.757 18.2603 207.295 19.7195 204.62L19.7241 204.611L19.7281 204.602C22.9443 197.428 28.5077 193.469 34.4563 191.424C40.4059 189.379 46.7359 189.251 51.4616 189.747C59.8316 191.476 65.6556 198.501 69.5165 208.589C73.3774 218.678 75.2506 231.771 75.7502 245.509C76.2675 259.736 73.3974 269.923 68.5627 276.484C63.734 283.038 56.9296 285.998 49.5083 285.75C43.7518 285.558 38.5151 284.901 34.1167 283.623C29.717 282.344 26.1737 280.449 23.783 277.794C19.0278 272.513 18.7343 264.092 25.7201 251.119Z" fill="#74CDDD" stroke="black" stroke-width="0.5"/>
<path d="M56.3882 256.776C55.7684 257.086 54.7965 257.155 53.5226 256.821C52.2549 256.489 50.7149 255.764 48.984 254.528C48.5398 254.195 48.1177 253.882 47.7191 253.586C46.3126 252.543 45.1997 251.717 44.4487 251.001C43.9674 250.543 43.6598 250.151 43.5156 249.8C43.378 249.465 43.3873 249.163 43.5566 248.848C43.6257 248.719 43.7573 248.602 43.9734 248.507C44.1902 248.412 44.4772 248.346 44.8292 248.313C45.533 248.247 46.4517 248.317 47.4793 248.503C49.5328 248.873 51.9669 249.692 53.8817 250.72C56.3168 252.028 57.1532 253.738 57.1864 255.007C57.2099 255.903 56.8405 256.55 56.3882 256.776Z" fill="#ECCDA6" stroke="black" stroke-width="0.5" stroke-linecap="round" stroke-linejoin="round"/>
<path d="M25.7543 213.546L25.7557 213.553L25.7575 213.561C26.4988 216.526 26.3327 218.962 25.5363 220.643C24.7463 222.31 23.3314 223.25 21.5 223.25C16.1585 223.25 12.25 218.63 12.25 213.5C12.25 210.891 12.6246 208.573 13.6502 206.914C14.6623 205.276 16.3271 204.25 19 204.25C20.8968 204.25 22.1791 204.616 23.1906 205.904C24.228 207.226 25.0039 209.544 25.7543 213.546Z" fill="#78CBDF" stroke="black" stroke-width="0.5"/>
<path d="M25.5 212.5C26.3201 216.831 26.5346 219 22.9036 219C18 219 16.5 216.229 16.5 213C16.5 209 16.5 207 22 207C24.4025 207 24.5678 207.577 25.5 212.5Z" fill="black"/>
<circle cx="42.5" cy="213.5" r="9.25" fill="#FEFDFD" stroke="#E9ECEC" stroke-width="0.5"/>
<circle cx="42.5" cy="212.5" r="2.5" fill="black"/>
<path d="M60.9219 218.063C60.9807 218.033 61.0543 217.986 61.1646 217.916C61.2209 217.88 61.2868 217.838 61.3652 217.789C61.4032 217.764 61.44 217.74 61.4756 217.717C61.609 217.63 61.7263 217.554 61.83 217.473C61.9596 217.371 62.0435 217.279 62.0898 217.183C62.1701 217.018 62.1848 216.735 61.7912 216.138L61.7854 216.129L61.7856 216.129C61.0459 214.896 60.369 214.195 59.816 213.855C59.266 213.516 58.8753 213.552 58.6375 213.709C58.6053 213.73 58.5673 213.773 58.5762 213.914C58.5852 214.058 58.6429 214.253 58.7493 214.495M60.9219 218.063L58.7493 214.495M60.9219 218.063C60.9177 218.056 60.9132 218.049 60.9083 218.041C60.904 218.034 60.8996 218.026 60.8951 218.019C60.8596 217.923 60.8099 217.83 60.7575 217.74C60.7093 217.657 60.6469 217.558 60.5778 217.449C60.5164 217.345 60.4453 217.23 60.3621 217.104C60.3146 217.026 60.2635 216.946 60.2088 216.863C60.1799 216.819 60.151 216.774 60.1222 216.73C59.9414 216.441 59.7496 216.124 59.5558 215.802L59.5385 215.774C59.2688 215.326 58.9958 214.874 58.7493 214.495M60.9219 218.063L58.7493 214.495M59.7004 216.998C59.7815 217.128 59.8608 217.251 59.9372 217.368C60.2267 217.844 60.3095 218.123 60.2938 218.306C60.2784 218.486 60.1596 218.637 59.8189 218.861C59.4569 219.1 59.252 219.201 59.061 219.172C58.8756 219.144 58.6122 218.975 58.2088 218.362C57.2312 216.878 56.9678 215.922 56.9992 215.309C57.0294 214.72 57.3345 214.408 57.6375 214.209C57.6645 214.191 57.685 214.188 57.7079 214.19C57.7367 214.193 57.7828 214.208 57.8484 214.251C57.9825 214.34 58.1422 214.512 58.3234 214.757C58.5554 215.113 58.788 215.501 59.0253 215.898L59.0445 215.93C59.2595 216.289 59.4782 216.654 59.7004 216.998Z" fill="#FEFDFD" stroke="#E9ECEC" stroke-width="0.5"/>
<path d="M62.3802 212.203C62.4575 212.584 62.4439 212.879 62.3621 213.111C62.2818 213.34 62.1276 213.531 61.88 213.694C61.3671 214.032 60.4858 214.229 59.1768 214.338C58.4346 214.399 57.7462 214.797 57.3675 215.456C56.8358 216.38 56.4138 217.104 55.9174 217.551C55.6756 217.768 55.423 217.913 55.1385 217.981C54.8533 218.05 54.5186 218.045 54.1068 217.939C53.81 217.862 53.5625 217.666 53.4416 217.401C53.0613 216.568 52.935 215.332 53.1589 214.111C53.3824 212.893 53.9467 211.732 54.9011 211.017C56.4568 209.909 58.2442 209.745 59.6933 210.101C60.4185 210.28 61.0513 210.586 61.523 210.962C61.9967 211.339 62.2928 211.773 62.3802 212.203Z" fill="#ECCDA6" stroke="black" stroke-width="0.5"/>
<path d="M58.2784 210.413C58.5 212 58.2367 212.342 57.1564 212.98C56.0762 213.618 55.5 213.5 54.3666 212.722C53.5 212 54.4084 210.792 55.4886 210.155C56.5688 209.517 58 209.5 58.2784 210.413Z" fill="black"/>
<path d="M66.8003 199.15C68.1226 200.905 68.926 202.958 69.0599 204.818C69.1938 206.679 68.659 208.314 67.3495 209.3C66.0247 210.299 64.1541 210.567 62.2671 210.137C60.3831 209.708 58.5095 208.588 57.1997 206.85C54.5644 203.352 54.9932 198.702 57.6505 196.7C60.2959 194.706 64.1542 195.639 66.8003 199.15Z" fill="#FEFDFD" stroke="#E9ECEC" stroke-width="0.5"/>
<path d="M63 202.75C63 203.993 61.9926 205 60.75 205C59.5074 205 58.5 203.993 58.5 202.75C58.5 201.507 59.5074 200.5 60.75 200.5C61.9926 200.5 63 201.507 63 202.75Z" fill="black"/>
<defs>
<filter id="filter0_d_0_3" x="-60.3438" y="-70.04" width="426.517" height="448" filterUnits="userSpaceOnUse" color-interpolation-filters="sRGB">
<feFlood flood-opacity="0" result="BackgroundImageFix"/>
<feColorMatrix in="SourceAlpha" type="matrix" values="0 0 0 0 0 0 0 0 0 0 0 0 0 0 0 0 0 0 127 0" result="hardAlpha"/>
<feOffset/>
<feGaussianBlur stdDeviation="64"/>
<feComposite in2="hardAlpha" operator="out"/>
<feColorMatrix type="matrix" values="0 0 0 0 0.447059 0 0 0 0 0.803922 0 0 0 0 0.862745 0 0 0 1 0"/>
<feBlend mode="normal" in2="BackgroundImageFix" result="effect1_dropShadow_0_3"/>
<feBlend mode="normal" in="SourceGraphic" in2="effect1_dropShadow_0_3" result="shape"/>
</filter>
</defs>
</svg>
